<svg xmlns="http://www.w3.org/2000/svg" xmlns:xlink="http://www.w3.org/1999/xlink" viewBox="0,0,256,256" width="128px" height="128px" fill-rule="nonzero"><g fill="#512bd4" fill-rule="nonzero" stroke="none" stroke-width="1" stroke-linecap="butt" stroke-linejoin="miter" stroke-miterlimit="10" stroke-dasharray="" stroke-dashoffset="0" font-family="none" font-weight="none" font-size="none" text-anchor="none" style="mix-blend-mode: normal"><g transform="scale(4,4)"><path d="M32,3.02539c-7.425,0 -14.85,2.82461 -20.5,8.47461c-11.3,11.3 -11.3,29.7 0,41c5.7,5.7 13.1,8.5 20.5,8.5c7.4,0 14.8,-2.8 20.5,-8.5c11.3,-11.3 11.3,-29.7 0,-41c-5.65,-5.65 -13.075,-8.47461 -20.5,-8.47461zM32,6c6.7,0 13.30039,2.49961 18.40039,7.59961c10.1,10.2 10.1,26.70078 0,36.80078c-10.2,10.1 -26.70078,10.1 -36.80078,0c-10.1,-10.1 -10.1,-26.60078 0,-36.80078c5.1,-5.1 11.70039,-7.59961 18.40039,-7.59961zM32,21c-0.8,0 -1.5,0.6 -1.5,1.5v8h-8c-0.9,0 -1.5,0.6 -1.5,1.5c0,0.8 0.6,1.5 1.5,1.5h8v8c0,0.8 0.6,1.5 1.5,1.5c0.8,0 1.5,-0.7 1.5,-1.5v-8h8c0.8,0 1.5,-0.7 1.5,-1.5c0,-0.8 -0.7,-1.5 -1.5,-1.5h-8v-8c0,-0.9 -0.7,-1.5 -1.5,-1.5z"></path></g></g></svg>